<svg xmlns="http://www.w3.org/2000/svg" xmlns:xlink="http://www.w3.org/1999/xlink" preserveAspectRatio="xMidYMid meet" version="1.0" viewBox="0.0 0.0 574.3 574.3" zoomAndPan="magnify" style="fill: rgb(0, 0, 0);" original_string_length="3930" width="1600px" height="1600px"><g id="__id5_s904qhc9nj"><path clip-rule="evenodd" d="M524.75,536.35l11.6-11.6c23.54-26.27,37.9-60.91,37.9-98.76 c0-62.59-39.49-117.46-96.44-138.88c56.96-21.39,96.44-76.27,96.44-138.85c0-37.85-14.36-72.49-37.9-98.76l-11.6-11.61 C498.49,14.36,463.84,0,425.99,0c-62.59,0-117.46,39.49-138.88,96.44C265.73,39.48,210.85,0,148.27,0 c-37.84,0-72.49,14.36-98.76,37.9l-11.6,11.61C14.37,75.78,0,110.42,0,148.27c0,62.59,39.49,117.46,96.44,138.87 C39.48,308.52,0,363.41,0,425.99c0,37.84,14.37,72.49,37.91,98.76l11.6,11.6c26.27,23.54,60.91,37.9,98.76,37.9 c62.59,0,117.46-39.49,138.88-96.44c21.39,56.96,76.27,96.44,138.85,96.44C463.84,574.26,498.49,559.89,524.75,536.35 M296.54,168.15c24.03,0,47.97,0,72.03,0v18.75l-46.53,0c0,0.01-13.62,1.45-14.89,1.75c30.93,26.77,38.3,71.68,17.14,106.77 c-4.61,7.65-10.42,14.51-17.16,20.34c40.91,9.65,80.23-21.83,80.23-63.55c0-49.82-0.04-99.59-0.04-149.38 c0-38.86,26.82-72.28,63.64-81.57C371.49,5.55,296.54,66.94,296.54,148.27V168.15z M277.72,168.15l0.01-22.03 c-0.58-34.71-15.04-66.25-38.05-89.26c-23.47-23.47-55.82-38.03-91.42-38.03c-8.53,0-16.88,0.84-24.97,2.44 c36.82,9.29,63.64,42.71,63.64,81.57v46.53h-18.82v-46.53c0-35.88-29.39-65.28-65.28-65.28c-15.53,0-29.84,5.51-41.09,14.66 c-1.67,1.51-3.3,3.05-4.89,4.64c-1.59,1.59-3.14,3.22-4.64,4.89c-9.06,10.57-14.66,26.1-14.66,41.09 c0,35.88,29.39,65.28,65.28,65.28C161.12,168.11,219.41,168.15,277.72,168.15z M406.11,296.54c0,24.03,0,47.97,0,72.03l-18.75,0 v-46.53c-0.01,0-1.45-13.63-1.75-14.89c-33.78,39.02-93.64,38.7-127.12-0.02c-1.13,4.79-1.73,9.79-1.73,14.92h-0.04 c0,35.84,29.48,65.31,65.32,65.31c49.82,0,99.59-0.03,149.38-0.03c38.86,0,72.28,26.82,81.57,63.64 c15.71-79.47-45.67-154.42-127.01-154.42H406.11z M406.11,277.72l22.03,0.01c34.71-0.57,66.25-15.03,89.26-38.05 c30.27-30.27,44.04-73.64,35.6-116.39c-9.29,36.82-42.71,63.64-81.57,63.64H424.9v-18.83h46.53c35.88,0,65.28-29.39,65.28-65.28 c0-15.53-5.51-29.84-14.66-41.08c-1.51-1.67-3.05-3.3-4.64-4.89c-1.59-1.59-3.22-3.14-4.89-4.64 c-10.57-9.06-26.11-14.66-41.09-14.66c-35.88,0-65.28,29.39-65.28,65.28C406.15,161.11,406.11,219.41,406.11,277.72z M277.72,406.11 c-24.03,0-47.98,0-72.03,0l0-18.75l46.53,0c0-0.01,13.62-1.45,14.89-1.75c-17.93-15.53-29.13-38.33-29.13-63.56h-0.04 c0-24.76,10.92-47.75,29.19-63.55c-40.83-9.62-80.23,21.74-80.23,63.55c0,49.82,0.03,99.59,0.03,149.39 c0,38.86-26.82,72.28-63.64,81.57c79.5,15.7,154.42-45.69,154.42-127.01V406.11z M296.54,406.11l-0.01,22.03 c0.58,34.71,15.04,66.25,38.05,89.26c23.47,23.47,55.83,38.03,91.42,38.03c8.53,0,16.88-0.84,24.97-2.44 c-36.82-9.29-63.64-42.71-63.64-81.57V424.9h18.83v46.53c0,35.88,29.39,65.28,65.28,65.28c15.53,0,29.84-5.51,41.09-14.66 c1.67-1.51,3.3-3.05,4.89-4.64c1.59-1.59,3.14-3.22,4.64-4.89c9.06-10.57,14.66-26.1,14.66-41.09c0-35.88-29.39-65.28-65.28-65.28 C413.15,406.15,354.85,406.11,296.54,406.11z M168.15,277.72c0-24.02,0-47.97,0-72.03h18.75l0,46.53c0.01,0,1.45,13.63,1.75,14.89 c26.77-30.93,71.68-38.29,106.77-17.14c7.65,4.61,14.51,10.42,20.34,17.16c9.63-40.82-21.73-80.23-63.55-80.23 c-49.82,0-99.6,0.03-149.39,0.03c-38.86,0-72.28-26.82-81.57-63.64c-15.7,79.5,45.69,154.42,127.01,154.42H168.15z M56.86,334.57 c23.01-23.01,54.55-37.47,89.26-38.05l22.03,0.01c0,58.3-0.04,116.59-0.04,174.89c0,35.88-29.39,65.28-65.28,65.28 c-14.98,0-30.52-5.6-41.09-14.66c-1.67-1.51-3.3-3.05-4.89-4.64c-1.59-1.59-3.14-3.22-4.64-4.89 c-9.16-11.24-14.66-25.56-14.66-41.08c0-35.89,29.39-65.28,65.28-65.28h46.53v-18.82h-46.53c-38.86,0-72.28,26.82-81.57,63.64 c-1.6-8.09-2.44-16.43-2.44-24.97C18.83,390.4,33.39,358.04,56.86,334.57z" fill-rule="evenodd" style="fill: rgb(203, 162, 133);"/></g></svg>