<svg xmlns="http://www.w3.org/2000/svg" xmlns:xlink="http://www.w3.org/1999/xlink" data-name="Layer 1" preserveAspectRatio="xMidYMid meet" version="1.0" viewBox="0.0 0.0 474.0 239.0" zoomAndPan="magnify" style="fill: rgb(218, 177, 135);" original_string_length="1191" width="137.36343094466022px" height="69.19682833837258px"><g id="__id1_s2yjoiu5ib"><path d="M472,235H262.41l207-32.79a2,2,0,0,0-.63-4l-207,32.79,199.33-64.77a2,2,0,0,0-1.24-3.8L260.55,227.24l186.74-95.15a2,2,0,1,0-1.81-3.56L258.74,223.68,428.29,100.49a2,2,0,1,0-2.35-3.24L256.38,220.44l148.2-148.2a2,2,0,0,0-2.82-2.82l-148.2,148.2L376.75,48.06a2,2,0,1,0-3.24-2.35L250.32,215.26,345.47,28.52a2,2,0,1,0-3.56-1.81L246.76,213.45,311.52,14.12a2,2,0,1,0-3.8-1.24L243,212.21l32.79-207a2,2,0,0,0-3.95-.63L239,211.59V2a2,2,0,0,0-4,0V211.59l-32.79-207a2,2,0,0,0-4,.63l32.79,207L166.28,12.88a2,2,0,0,0-3.8,1.24l64.76,199.33L132.09,26.71a2,2,0,1,0-3.56,1.81l95.15,186.74L100.49,45.71a2,2,0,1,0-3.24,2.35L220.44,217.62,72.24,69.42a2,2,0,0,0-2.82,2.82l148.2,148.2L48.06,97.25a2,2,0,1,0-2.35,3.24L215.26,223.68,28.52,128.53a2,2,0,1,0-1.81,3.56l186.74,95.15L14.12,162.48a2,2,0,1,0-1.24,3.8l199.33,64.77-207-32.79a2,2,0,0,0-.63,4l207,32.79H2a2,2,0,0,0,0,4H472a2,2,0,0,0,0-4Z" style="fill: inherit;"/></g></svg>